
      <svg xmlns="http://www.w3.org/2000/svg" version="1.1" width="1920" height="1080" style="display: block;"><polygon stroke-linejoin="round" stroke-miterlimit="1" stroke-width="1" points="2055.14453125,1018.5644836425781 1929.4883422851562,1068.15673828125 1921.8605346679688,1104.8270263671875" style="fill:#ed4114;stroke:#ed4114;"></polygon><polygon stroke-linejoin="round" stroke-miterlimit="1" stroke-width="1" points="1877.72900390625,954.6075744628906 1929.4883422851562,1068.15673828125 2055.14453125,1018.5644836425781" style="fill:#610e06;stroke:#610e06;"></polygon><polygon stroke-linejoin="round" stroke-miterlimit="1" stroke-width="1" points="1960.5820922851562,897.3907470703125 1877.72900390625,954.6075744628906 2055.14453125,1018.5644836425781" style="fill:#711308;stroke:#711308;"></polygon><polygon stroke-linejoin="round" stroke-miterlimit="1" stroke-width="1" points="1784.3189697265625,817.8211059570312 1877.72900390625,954.6075744628906 1960.5820922851562,897.3907470703125" style="fill:#5a0b05;stroke:#5a0b05;"></polygon><polygon stroke-linejoin="round" stroke-miterlimit="1" stroke-width="1" points="1919.62646484375,744.0776519775391 1784.3189697265625,817.8211059570312 1960.5820922851562,897.3907470703125" style="fill:#540905;stroke:#540905;"></polygon><polygon stroke-linejoin="round" stroke-miterlimit="1" stroke-width="1" points="1871.7080688476562,680.3408813476562 1784.3189697265625,817.8211059570312 1919.62646484375,744.0776519775391" style="fill:#97210c;stroke:#97210c;"></polygon><polygon stroke-linejoin="round" stroke-miterlimit="1" stroke-width="1" points="1922.762939453125,583.8131675720215 1871.7080688476562,680.3408813476562 1919.62646484375,744.0776519775391" style="fill:#a9280d;stroke:#a9280d;"></polygon><polygon stroke-linejoin="round" stroke-miterlimit="1" stroke-width="1" points="1784.9418334960938,559.4699630737305 1871.7080688476562,680.3408813476562 1922.762939453125,583.8131675720215" style="fill:#5a0b05;stroke:#5a0b05;"></polygon><polygon stroke-linejoin="round" stroke-miterlimit="1" stroke-width="1" points="2047.10400390625,439.73207092285156 1784.9418334960938,559.4699630737305 1922.762939453125,583.8131675720215" style="fill:#5d0c06;stroke:#5d0c06;"></polygon><polygon stroke-linejoin="round" stroke-miterlimit="1" stroke-width="1" points="1920.9066162109375,430.8781967163086 1784.9418334960938,559.4699630737305 2047.10400390625,439.73207092285156" style="fill:#711408;stroke:#711408;"></polygon><polygon stroke-linejoin="round" stroke-miterlimit="1" stroke-width="1" points="2020.7354736328125,397.24085998535156 1920.9066162109375,430.8781967163086 2047.10400390625,439.73207092285156" style="fill:#741508;stroke:#741508;"></polygon><polygon stroke-linejoin="round" stroke-miterlimit="1" stroke-width="1" points="1929.685791015625,366.6049346923828 1920.9066162109375,430.8781967163086 2020.7354736328125,397.24085998535156" style="fill:#450303;stroke:#450303;"></polygon><polygon stroke-linejoin="round" stroke-miterlimit="1" stroke-width="1" points="1921.34716796875,185.42678833007812 1929.685791015625,366.6049346923828 2020.7354736328125,397.24085998535156" style="fill:#450303;stroke:#450303;"></polygon><polygon stroke-linejoin="round" stroke-miterlimit="1" stroke-width="1" points="1852.4534912109375,274.6055908203125 1929.685791015625,366.6049346923828 1921.34716796875,185.42678833007812" style="fill:#650f07;stroke:#650f07;"></polygon><polygon stroke-linejoin="round" stroke-miterlimit="1" stroke-width="1" points="2078.314453125,91.6778564453125 1852.4534912109375,274.6055908203125 1921.34716796875,185.42678833007812" style="fill:#450303;stroke:#450303;"></polygon><polygon stroke-linejoin="round" stroke-miterlimit="1" stroke-width="1" points="1806.318359375,84.4505615234375 1852.4534912109375,274.6055908203125 2078.314453125,91.6778564453125" style="fill:#550905;stroke:#550905;"></polygon><polygon stroke-linejoin="round" stroke-miterlimit="1" stroke-width="1" points="2044.253662109375,-49.03472900390625 1806.318359375,84.4505615234375 2078.314453125,91.6778564453125" style="fill:#530805;stroke:#530805;"></polygon><polygon stroke-linejoin="round" stroke-miterlimit="1" stroke-width="1" points="1914.0157470703125,-15.0479736328125 1806.318359375,84.4505615234375 2044.253662109375,-49.03472900390625" style="fill:#4a0504;stroke:#4a0504;"></polygon><polygon stroke-linejoin="round" stroke-miterlimit="1" stroke-width="1" points="1877.72900390625,954.6075744628906 1655.4757690429688,1095.994384765625 1929.4883422851562,1068.15673828125" style="fill:#580a05;stroke:#580a05;"></polygon><polygon stroke-linejoin="round" stroke-miterlimit="1" stroke-width="1" points="1730.8099365234375,950.2023620605469 1655.4757690429688,1095.994384765625 1877.72900390625,954.6075744628906" style="fill:#721408;stroke:#721408;"></polygon><polygon stroke-linejoin="round" stroke-miterlimit="1" stroke-width="1" points="1784.3189697265625,817.8211059570312 1730.8099365234375,950.2023620605469 1877.72900390625,954.6075744628906" style="fill:#630e06;stroke:#630e06;"></polygon><polygon stroke-linejoin="round" stroke-miterlimit="1" stroke-width="1" points="1799.5514526367188,857.5361328125 1730.8099365234375,950.2023620605469 1784.3189697265625,817.8211059570312" style="fill:#450303;stroke:#450303;"></polygon><polygon stroke-linejoin="round" stroke-miterlimit="1" stroke-width="1" points="1871.7080688476562,680.3408813476562 1799.5514526367188,857.5361328125 1784.3189697265625,817.8211059570312" style="fill:#450303;stroke:#450303;"></polygon><polygon stroke-linejoin="round" stroke-miterlimit="1" stroke-width="1" points="1718.5624389648438,680.6326904296875 1799.5514526367188,857.5361328125 1871.7080688476562,680.3408813476562" style="fill:#5e0c06;stroke:#5e0c06;"></polygon><polygon stroke-linejoin="round" stroke-miterlimit="1" stroke-width="1" points="1784.9418334960938,559.4699630737305 1718.5624389648438,680.6326904296875 1871.7080688476562,680.3408813476562" style="fill:#520805;stroke:#520805;"></polygon><polygon stroke-linejoin="round" stroke-miterlimit="1" stroke-width="1" points="1698.8190307617188,645.1119384765625 1718.5624389648438,680.6326904296875 1784.9418334960938,559.4699630737305" style="fill:#450303;stroke:#450303;"></polygon><polygon stroke-linejoin="round" stroke-miterlimit="1" stroke-width="1" points="1920.9066162109375,430.8781967163086 1698.8190307617188,645.1119384765625 1784.9418334960938,559.4699630737305" style="fill:#450303;stroke:#450303;"></polygon><polygon stroke-linejoin="round" stroke-miterlimit="1" stroke-width="1" points="1782.9520263671875,516.7623062133789 1698.8190307617188,645.1119384765625 1920.9066162109375,430.8781967163086" style="fill:#6e1207;stroke:#6e1207;"></polygon><polygon stroke-linejoin="round" stroke-miterlimit="1" stroke-width="1" points="1929.685791015625,366.6049346923828 1782.9520263671875,516.7623062133789 1920.9066162109375,430.8781967163086" style="fill:#4e0604;stroke:#4e0604;"></polygon><polygon stroke-linejoin="round" stroke-miterlimit="1" stroke-width="1" points="1645.4677124023438,392.8412322998047 1782.9520263671875,516.7623062133789 1929.685791015625,366.6049346923828" style="fill:#801909;stroke:#801909;"></polygon><polygon stroke-linejoin="round" stroke-miterlimit="1" stroke-width="1" points="1852.4534912109375,274.6055908203125 1645.4677124023438,392.8412322998047 1929.685791015625,366.6049346923828" style="fill:#7e1809;stroke:#7e1809;"></polygon><polygon stroke-linejoin="round" stroke-miterlimit="1" stroke-width="1" points="1643.2998046875,195.0084228515625 1645.4677124023438,392.8412322998047 1852.4534912109375,274.6055908203125" style="fill:#831a0a;stroke:#831a0a;"></polygon><polygon stroke-linejoin="round" stroke-miterlimit="1" stroke-width="1" points="1806.318359375,84.4505615234375 1643.2998046875,195.0084228515625 1852.4534912109375,274.6055908203125" style="fill:#841b0a;stroke:#841b0a;"></polygon><polygon stroke-linejoin="round" stroke-miterlimit="1" stroke-width="1" points="1801.3761596679688,82.88943481445312 1643.2998046875,195.0084228515625 1806.318359375,84.4505615234375" style="fill:#c03110;stroke:#c03110;"></polygon><polygon stroke-linejoin="round" stroke-miterlimit="1" stroke-width="1" points="1914.0157470703125,-15.0479736328125 1801.3761596679688,82.88943481445312 1806.318359375,84.4505615234375" style="fill:#d13712;stroke:#d13712;"></polygon><polygon stroke-linejoin="round" stroke-miterlimit="1" stroke-width="1" points="1679.6090087890625,18.09478759765625 1801.3761596679688,82.88943481445312 1914.0157470703125,-15.0479736328125" style="fill:#791609;stroke:#791609;"></polygon><polygon stroke-linejoin="round" stroke-miterlimit="1" stroke-width="1" points="1730.8099365234375,950.2023620605469 1625.08740234375,1063.7896728515625 1655.4757690429688,1095.994384765625" style="fill:#450303;stroke:#450303;"></polygon><polygon stroke-linejoin="round" stroke-miterlimit="1" stroke-width="1" points="1506.1731567382812,941.3916015625 1625.08740234375,1063.7896728515625 1730.8099365234375,950.2023620605469" style="fill:#7f1909;stroke:#7f1909;"></polygon><polygon stroke-linejoin="round" stroke-miterlimit="1" stroke-width="1" points="1799.5514526367188,857.5361328125 1506.1731567382812,941.3916015625 1730.8099365234375,950.2023620605469" style="fill:#4d0604;stroke:#4d0604;"></polygon><polygon stroke-linejoin="round" stroke-miterlimit="1" stroke-width="1" points="1604.7366943359375,819.9699401855469 1506.1731567382812,941.3916015625 1799.5514526367188,857.5361328125" style="fill:#791609;stroke:#791609;"></polygon><polygon stroke-linejoin="round" stroke-miterlimit="1" stroke-width="1" points="1718.5624389648438,680.6326904296875 1604.7366943359375,819.9699401855469 1799.5514526367188,857.5361328125" style="fill:#6f1307;stroke:#6f1307;"></polygon><polygon stroke-linejoin="round" stroke-miterlimit="1" stroke-width="1" points="1506.8265380859375,756.7915802001953 1604.7366943359375,819.9699401855469 1718.5624389648438,680.6326904296875" style="fill:#450303;stroke:#450303;"></polygon><polygon stroke-linejoin="round" stroke-miterlimit="1" stroke-width="1" points="1698.8190307617188,645.1119384765625 1506.8265380859375,756.7915802001953 1718.5624389648438,680.6326904296875" style="fill:#450303;stroke:#450303;"></polygon><polygon stroke-linejoin="round" stroke-miterlimit="1" stroke-width="1" points="1639.1331176757812,580.2573928833008 1506.8265380859375,756.7915802001953 1698.8190307617188,645.1119384765625" style="fill:#7a1709;stroke:#7a1709;"></polygon><polygon stroke-linejoin="round" stroke-miterlimit="1" stroke-width="1" points="1782.9520263671875,516.7623062133789 1639.1331176757812,580.2573928833008 1698.8190307617188,645.1119384765625" style="fill:#771508;stroke:#771508;"></polygon><polygon stroke-linejoin="round" stroke-miterlimit="1" stroke-width="1" points="1619.31005859375,443.8007049560547 1639.1331176757812,580.2573928833008 1782.9520263671875,516.7623062133789" style="fill:#7c1709;stroke:#7c1709;"></polygon><polygon stroke-linejoin="round" stroke-miterlimit="1" stroke-width="1" points="1645.4677124023438,392.8412322998047 1619.31005859375,443.8007049560547 1782.9520263671875,516.7623062133789" style="fill:#7b1709;stroke:#7b1709;"></polygon><polygon stroke-linejoin="round" stroke-miterlimit="1" stroke-width="1" points="1603.1513061523438,342.5818328857422 1619.31005859375,443.8007049560547 1645.4677124023438,392.8412322998047" style="fill:#450303;stroke:#450303;"></polygon><polygon stroke-linejoin="round" stroke-miterlimit="1" stroke-width="1" points="1643.2998046875,195.0084228515625 1603.1513061523438,342.5818328857422 1645.4677124023438,392.8412322998047" style="fill:#450303;stroke:#450303;"></polygon><polygon stroke-linejoin="round" stroke-miterlimit="1" stroke-width="1" points="1633.0606689453125,224.07437133789062 1603.1513061523438,342.5818328857422 1643.2998046875,195.0084228515625" style="fill:#450303;stroke:#450303;"></polygon><polygon stroke-linejoin="round" stroke-miterlimit="1" stroke-width="1" points="1801.3761596679688,82.88943481445312 1633.0606689453125,224.07437133789062 1643.2998046875,195.0084228515625" style="fill:#450303;stroke:#450303;"></polygon><polygon stroke-linejoin="round" stroke-miterlimit="1" stroke-width="1" points="1660.001220703125,124.1395263671875 1633.0606689453125,224.07437133789062 1801.3761596679688,82.88943481445312" style="fill:#4d0604;stroke:#4d0604;"></polygon><polygon stroke-linejoin="round" stroke-miterlimit="1" stroke-width="1" points="1679.6090087890625,18.09478759765625 1660.001220703125,124.1395263671875 1801.3761596679688,82.88943481445312" style="fill:#4d0604;stroke:#4d0604;"></polygon><polygon stroke-linejoin="round" stroke-miterlimit="1" stroke-width="1" points="1526.0181274414062,15.568603515625 1660.001220703125,124.1395263671875 1679.6090087890625,18.09478759765625" style="fill:#600d06;stroke:#600d06;"></polygon><polygon stroke-linejoin="round" stroke-miterlimit="1" stroke-width="1" points="1506.1731567382812,941.3916015625 1369.0587768554688,1110.7407836914062 1625.08740234375,1063.7896728515625" style="fill:#7a1709;stroke:#7a1709;"></polygon><polygon stroke-linejoin="round" stroke-miterlimit="1" stroke-width="1" points="1521.580322265625,1021.3107604980469 1369.0587768554688,1110.7407836914062 1506.1731567382812,941.3916015625" style="fill:#450303;stroke:#450303;"></polygon><polygon stroke-linejoin="round" stroke-miterlimit="1" stroke-width="1" points="1604.7366943359375,819.9699401855469 1521.580322265625,1021.3107604980469 1506.1731567382812,941.3916015625" style="fill:#450303;stroke:#450303;"></polygon><polygon stroke-linejoin="round" stroke-miterlimit="1" stroke-width="1" points="1378.02490234375,865.1079711914062 1521.580322265625,1021.3107604980469 1604.7366943359375,819.9699401855469" style="fill:#6a1107;stroke:#6a1107;"></polygon><polygon stroke-linejoin="round" stroke-miterlimit="1" stroke-width="1" points="1506.8265380859375,756.7915802001953 1378.02490234375,865.1079711914062 1604.7366943359375,819.9699401855469" style="fill:#450303;stroke:#450303;"></polygon><polygon stroke-linejoin="round" stroke-miterlimit="1" stroke-width="1" points="1429.0318603515625,729.4080963134766 1378.02490234375,865.1079711914062 1506.8265380859375,756.7915802001953" style="fill:#b62d0f;stroke:#b62d0f;"></polygon><polygon stroke-linejoin="round" stroke-miterlimit="1" stroke-width="1" points="1639.1331176757812,580.2573928833008 1429.0318603515625,729.4080963134766 1506.8265380859375,756.7915802001953" style="fill:#b22c0e;stroke:#b22c0e;"></polygon><polygon stroke-linejoin="round" stroke-miterlimit="1" stroke-width="1" points="1441.6403503417969,567.5017738342285 1429.0318603515625,729.4080963134766 1639.1331176757812,580.2573928833008" style="fill:#6f1308;stroke:#6f1308;"></polygon><polygon stroke-linejoin="round" stroke-miterlimit="1" stroke-width="1" points="1619.31005859375,443.8007049560547 1441.6403503417969,567.5017738342285 1639.1331176757812,580.2573928833008" style="fill:#801909;stroke:#801909;"></polygon><polygon stroke-linejoin="round" stroke-miterlimit="1" stroke-width="1" points="1524.2988891601562,464.40460205078125 1441.6403503417969,567.5017738342285 1619.31005859375,443.8007049560547" style="fill:#691007;stroke:#691007;"></polygon><polygon stroke-linejoin="round" stroke-miterlimit="1" stroke-width="1" points="1603.1513061523438,342.5818328857422 1524.2988891601562,464.40460205078125 1619.31005859375,443.8007049560547" style="fill:#650f07;stroke:#650f07;"></polygon><polygon stroke-linejoin="round" stroke-miterlimit="1" stroke-width="1" points="1369.352294921875,360.693603515625 1524.2988891601562,464.40460205078125 1603.1513061523438,342.5818328857422" style="fill:#7e1809;stroke:#7e1809;"></polygon><polygon stroke-linejoin="round" stroke-miterlimit="1" stroke-width="1" points="1633.0606689453125,224.07437133789062 1369.352294921875,360.693603515625 1603.1513061523438,342.5818328857422" style="fill:#7b1709;stroke:#7b1709;"></polygon><polygon stroke-linejoin="round" stroke-miterlimit="1" stroke-width="1" points="1487.1365356445312,187.131103515625 1369.352294921875,360.693603515625 1633.0606689453125,224.07437133789062" style="fill:#97210c;stroke:#97210c;"></polygon><polygon stroke-linejoin="round" stroke-miterlimit="1" stroke-width="1" points="1660.001220703125,124.1395263671875 1487.1365356445312,187.131103515625 1633.0606689453125,224.07437133789062" style="fill:#95210b;stroke:#95210b;"></polygon><polygon stroke-linejoin="round" stroke-miterlimit="1" stroke-width="1" points="1438.3245849609375,126.70028686523438 1487.1365356445312,187.131103515625 1660.001220703125,124.1395263671875" style="fill:#9c230c;stroke:#9c230c;"></polygon><polygon stroke-linejoin="round" stroke-miterlimit="1" stroke-width="1" points="1526.0181274414062,15.568603515625 1438.3245849609375,126.70028686523438 1660.001220703125,124.1395263671875" style="fill:#9b230c;stroke:#9b230c;"></polygon><polygon stroke-linejoin="round" stroke-miterlimit="1" stroke-width="1" points="1478.7191772460938,-44.323974609375 1438.3245849609375,126.70028686523438 1526.0181274414062,15.568603515625" style="fill:#a8280d;stroke:#a8280d;"></polygon><polygon stroke-linejoin="round" stroke-miterlimit="1" stroke-width="1" points="1521.580322265625,1021.3107604980469 1299.6658935546875,1147.8387451171875 1369.0587768554688,1110.7407836914062" style="fill:#450303;stroke:#450303;"></polygon><polygon stroke-linejoin="round" stroke-miterlimit="1" stroke-width="1" points="1374.3840026855469,1012.5576782226562 1299.6658935546875,1147.8387451171875 1521.580322265625,1021.3107604980469" style="fill:#650f07;stroke:#650f07;"></polygon><polygon stroke-linejoin="round" stroke-miterlimit="1" stroke-width="1" points="1378.02490234375,865.1079711914062 1374.3840026855469,1012.5576782226562 1521.580322265625,1021.3107604980469" style="fill:#600d06;stroke:#600d06;"></polygon><polygon stroke-linejoin="round" stroke-miterlimit="1" stroke-width="1" points="1226.9043884277344,851.7831726074219 1374.3840026855469,1012.5576782226562 1378.02490234375,865.1079711914062" style="fill:#5f0d06;stroke:#5f0d06;"></polygon><polygon stroke-linejoin="round" stroke-miterlimit="1" stroke-width="1" points="1429.0318603515625,729.4080963134766 1226.9043884277344,851.7831726074219 1378.02490234375,865.1079711914062" style="fill:#94200b;stroke:#94200b;"></polygon><polygon stroke-linejoin="round" stroke-miterlimit="1" stroke-width="1" points="1322.8593444824219,686.6421051025391 1226.9043884277344,851.7831726074219 1429.0318603515625,729.4080963134766" style="fill:#821a0a;stroke:#821a0a;"></polygon><polygon stroke-linejoin="round" stroke-miterlimit="1" stroke-width="1" points="1441.6403503417969,567.5017738342285 1322.8593444824219,686.6421051025391 1429.0318603515625,729.4080963134766" style="fill:#711308;stroke:#711308;"></polygon><polygon stroke-linejoin="round" stroke-miterlimit="1" stroke-width="1" points="1302.1538696289062,648.5772857666016 1322.8593444824219,686.6421051025391 1441.6403503417969,567.5017738342285" style="fill:#9c230c;stroke:#9c230c;"></polygon><polygon stroke-linejoin="round" stroke-miterlimit="1" stroke-width="1" points="1524.2988891601562,464.40460205078125 1302.1538696289062,648.5772857666016 1441.6403503417969,567.5017738342285" style="fill:#c13110;stroke:#c13110;"></polygon><polygon stroke-linejoin="round" stroke-miterlimit="1" stroke-width="1" points="1236.8955688476562,473.78597259521484 1302.1538696289062,648.5772857666016 1524.2988891601562,464.40460205078125" style="fill:#761508;stroke:#761508;"></polygon><polygon stroke-linejoin="round" stroke-miterlimit="1" stroke-width="1" points="1369.352294921875,360.693603515625 1236.8955688476562,473.78597259521484 1524.2988891601562,464.40460205078125" style="fill:#8b1d0a;stroke:#8b1d0a;"></polygon><polygon stroke-linejoin="round" stroke-miterlimit="1" stroke-width="1" points="1235.0118408203125,307.1035919189453 1236.8955688476562,473.78597259521484 1369.352294921875,360.693603515625" style="fill:#c03110;stroke:#c03110;"></polygon><polygon stroke-linejoin="round" stroke-miterlimit="1" stroke-width="1" points="1487.1365356445312,187.131103515625 1235.0118408203125,307.1035919189453 1369.352294921875,360.693603515625" style="fill:#a8280d;stroke:#a8280d;"></polygon><polygon stroke-linejoin="round" stroke-miterlimit="1" stroke-width="1" points="1381.6791076660156,245.73394775390625 1235.0118408203125,307.1035919189453 1487.1365356445312,187.131103515625" style="fill:#450303;stroke:#450303;"></polygon><polygon stroke-linejoin="round" stroke-miterlimit="1" stroke-width="1" points="1438.3245849609375,126.70028686523438 1381.6791076660156,245.73394775390625 1487.1365356445312,187.131103515625" style="fill:#701308;stroke:#701308;"></polygon><polygon stroke-linejoin="round" stroke-miterlimit="1" stroke-width="1" points="1310.8065490722656,91.430419921875 1381.6791076660156,245.73394775390625 1438.3245849609375,126.70028686523438" style="fill:#701308;stroke:#701308;"></polygon><polygon stroke-linejoin="round" stroke-miterlimit="1" stroke-width="1" points="1478.7191772460938,-44.323974609375 1310.8065490722656,91.430419921875 1438.3245849609375,126.70028686523438" style="fill:#8b1d0a;stroke:#8b1d0a;"></polygon><polygon stroke-linejoin="round" stroke-miterlimit="1" stroke-width="1" points="1238.6485900878906,-64.93109130859375 1310.8065490722656,91.430419921875 1478.7191772460938,-44.323974609375" style="fill:#8d1e0b;stroke:#8d1e0b;"></polygon><polygon stroke-linejoin="round" stroke-miterlimit="1" stroke-width="1" points="1374.3840026855469,1012.5576782226562 1100.4341430664062,1056.9522705078125 1299.6658935546875,1147.8387451171875" style="fill:#620e06;stroke:#620e06;"></polygon><polygon stroke-linejoin="round" stroke-miterlimit="1" stroke-width="1" points="1198.1194610595703,967.2690124511719 1100.4341430664062,1056.9522705078125 1374.3840026855469,1012.5576782226562" style="fill:#751508;stroke:#751508;"></polygon><polygon stroke-linejoin="round" stroke-miterlimit="1" stroke-width="1" points="1226.9043884277344,851.7831726074219 1198.1194610595703,967.2690124511719 1374.3840026855469,1012.5576782226562" style="fill:#570a05;stroke:#570a05;"></polygon><polygon stroke-linejoin="round" stroke-miterlimit="1" stroke-width="1" points="1109.0657653808594,847.7324523925781 1198.1194610595703,967.2690124511719 1226.9043884277344,851.7831726074219" style="fill:#5a0b05;stroke:#5a0b05;"></polygon><polygon stroke-linejoin="round" stroke-miterlimit="1" stroke-width="1" points="1322.8593444824219,686.6421051025391 1109.0657653808594,847.7324523925781 1226.9043884277344,851.7831726074219" style="fill:#a1250d;stroke:#a1250d;"></polygon><polygon stroke-linejoin="round" stroke-miterlimit="1" stroke-width="1" points="1129.228271484375,741.8366851806641 1109.0657653808594,847.7324523925781 1322.8593444824219,686.6421051025391" style="fill:#9b230c;stroke:#9b230c;"></polygon><polygon stroke-linejoin="round" stroke-miterlimit="1" stroke-width="1" points="1302.1538696289062,648.5772857666016 1129.228271484375,741.8366851806641 1322.8593444824219,686.6421051025391" style="fill:#9b230c;stroke:#9b230c;"></polygon><polygon stroke-linejoin="round" stroke-miterlimit="1" stroke-width="1" points="1203.9263458251953,622.4698638916016 1129.228271484375,741.8366851806641 1302.1538696289062,648.5772857666016" style="fill:#7d1809;stroke:#7d1809;"></polygon><polygon stroke-linejoin="round" stroke-miterlimit="1" stroke-width="1" points="1236.8955688476562,473.78597259521484 1203.9263458251953,622.4698638916016 1302.1538696289062,648.5772857666016" style="fill:#7b1709;stroke:#7b1709;"></polygon><polygon stroke-linejoin="round" stroke-miterlimit="1" stroke-width="1" points="1247.2484741210938,446.349365234375 1203.9263458251953,622.4698638916016 1236.8955688476562,473.78597259521484" style="fill:#ff4b17;stroke:#ff4b17;"></polygon><polygon stroke-linejoin="round" stroke-miterlimit="1" stroke-width="1" points="1235.0118408203125,307.1035919189453 1247.2484741210938,446.349365234375 1236.8955688476562,473.78597259521484" style="fill:#a6270d;stroke:#a6270d;"></polygon><polygon stroke-linejoin="round" stroke-miterlimit="1" stroke-width="1" points="1151.4252624511719,399.3205261230469 1247.2484741210938,446.349365234375 1235.0118408203125,307.1035919189453" style="fill:#d33812;stroke:#d33812;"></polygon><polygon stroke-linejoin="round" stroke-miterlimit="1" stroke-width="1" points="1381.6791076660156,245.73394775390625 1151.4252624511719,399.3205261230469 1235.0118408203125,307.1035919189453" style="fill:#450303;stroke:#450303;"></polygon><polygon stroke-linejoin="round" stroke-miterlimit="1" stroke-width="1" points="1088.4555358886719,230.64157104492188 1151.4252624511719,399.3205261230469 1381.6791076660156,245.73394775390625" style="fill:#f54415;stroke:#f54415;"></polygon><polygon stroke-linejoin="round" stroke-miterlimit="1" stroke-width="1" points="1310.8065490722656,91.430419921875 1088.4555358886719,230.64157104492188 1381.6791076660156,245.73394775390625" style="fill:#c33210;stroke:#c33210;"></polygon><polygon stroke-linejoin="round" stroke-miterlimit="1" stroke-width="1" points="1244.4341430664062,71.00588989257812 1088.4555358886719,230.64157104492188 1310.8065490722656,91.430419921875" style="fill:#cb3411;stroke:#cb3411;"></polygon><polygon stroke-linejoin="round" stroke-miterlimit="1" stroke-width="1" points="1238.6485900878906,-64.93109130859375 1244.4341430664062,71.00588989257812 1310.8065490722656,91.430419921875" style="fill:#8a1d0a;stroke:#8a1d0a;"></polygon><polygon stroke-linejoin="round" stroke-miterlimit="1" stroke-width="1" points="1131.4736938476562,-22.18798828125 1244.4341430664062,71.00588989257812 1238.6485900878906,-64.93109130859375" style="fill:#ac290e;stroke:#ac290e;"></polygon><polygon stroke-linejoin="round" stroke-miterlimit="1" stroke-width="1" points="1198.1194610595703,967.2690124511719 951.7760162353516,1111.2286376953125 1100.4341430664062,1056.9522705078125" style="fill:#671007;stroke:#671007;"></polygon><polygon stroke-linejoin="round" stroke-miterlimit="1" stroke-width="1" points="1034.4137725830078,948.5947265625 951.7760162353516,1111.2286376953125 1198.1194610595703,967.2690124511719" style="fill:#6c1207;stroke:#6c1207;"></polygon><polygon stroke-linejoin="round" stroke-miterlimit="1" stroke-width="1" points="1109.0657653808594,847.7324523925781 1034.4137725830078,948.5947265625 1198.1194610595703,967.2690124511719" style="fill:#650f07;stroke:#650f07;"></polygon><polygon stroke-linejoin="round" stroke-miterlimit="1" stroke-width="1" points="949.8369903564453,830.8112487792969 1034.4137725830078,948.5947265625 1109.0657653808594,847.7324523925781" style="fill:#701308;stroke:#701308;"></polygon><polygon stroke-linejoin="round" stroke-miterlimit="1" stroke-width="1" points="1129.228271484375,741.8366851806641 949.8369903564453,830.8112487792969 1109.0657653808594,847.7324523925781" style="fill:#95210b;stroke:#95210b;"></polygon><polygon stroke-linejoin="round" stroke-miterlimit="1" stroke-width="1" points="953.4425582885742,738.1472320556641 949.8369903564453,830.8112487792969 1129.228271484375,741.8366851806641" style="fill:#881c0a;stroke:#881c0a;"></polygon><polygon stroke-linejoin="round" stroke-miterlimit="1" stroke-width="1" points="1203.9263458251953,622.4698638916016 953.4425582885742,738.1472320556641 1129.228271484375,741.8366851806641" style="fill:#841a0a;stroke:#841a0a;"></polygon><polygon stroke-linejoin="round" stroke-miterlimit="1" stroke-width="1" points="1083.228500366211,572.6551895141602 953.4425582885742,738.1472320556641 1203.9263458251953,622.4698638916016" style="fill:#691007;stroke:#691007;"></polygon><polygon stroke-linejoin="round" stroke-miterlimit="1" stroke-width="1" points="1247.2484741210938,446.349365234375 1083.228500366211,572.6551895141602 1203.9263458251953,622.4698638916016" style="fill:#95210b;stroke:#95210b;"></polygon><polygon stroke-linejoin="round" stroke-miterlimit="1" stroke-width="1" points="954.0259780883789,452.1084213256836 1083.228500366211,572.6551895141602 1247.2484741210938,446.349365234375" style="fill:#d83a12;stroke:#d83a12;"></polygon><polygon stroke-linejoin="round" stroke-miterlimit="1" stroke-width="1" points="1151.4252624511719,399.3205261230469 954.0259780883789,452.1084213256836 1247.2484741210938,446.349365234375" style="fill:#e83f14;stroke:#e83f14;"></polygon><polygon stroke-linejoin="round" stroke-miterlimit="1" stroke-width="1" points="1093.057601928711,327.84930419921875 954.0259780883789,452.1084213256836 1151.4252624511719,399.3205261230469" style="fill:#ff5319;stroke:#ff5319;"></polygon><polygon stroke-linejoin="round" stroke-miterlimit="1" stroke-width="1" points="1088.4555358886719,230.64157104492188 1093.057601928711,327.84930419921875 1151.4252624511719,399.3205261230469" style="fill:#ff611d;stroke:#ff611d;"></polygon><polygon stroke-linejoin="round" stroke-miterlimit="1" stroke-width="1" points="1101.9438018798828,274.98052978515625 1093.057601928711,327.84930419921875 1088.4555358886719,230.64157104492188" style="fill:#450303;stroke:#450303;"></polygon><polygon stroke-linejoin="round" stroke-miterlimit="1" stroke-width="1" points="1244.4341430664062,71.00588989257812 1101.9438018798828,274.98052978515625 1088.4555358886719,230.64157104492188" style="fill:#450303;stroke:#450303;"></polygon><polygon stroke-linejoin="round" stroke-miterlimit="1" stroke-width="1" points="950.3285140991211,102.82083129882812 1101.9438018798828,274.98052978515625 1244.4341430664062,71.00588989257812" style="fill:#e83f14;stroke:#e83f14;"></polygon><polygon stroke-linejoin="round" stroke-miterlimit="1" stroke-width="1" points="1131.4736938476562,-22.18798828125 950.3285140991211,102.82083129882812 1244.4341430664062,71.00588989257812" style="fill:#9c230c;stroke:#9c230c;"></polygon><polygon stroke-linejoin="round" stroke-miterlimit="1" stroke-width="1" points="1101.273696899414,-11.5902099609375 950.3285140991211,102.82083129882812 1131.4736938476562,-22.18798828125" style="fill:#b02b0e;stroke:#b02b0e;"></polygon><polygon stroke-linejoin="round" stroke-miterlimit="1" stroke-width="1" points="1034.4137725830078,948.5947265625 926.7372856140137,1057.2836303710938 951.7760162353516,1111.2286376953125" style="fill:#610d06;stroke:#610d06;"></polygon><polygon stroke-linejoin="round" stroke-miterlimit="1" stroke-width="1" points="847.2918930053711,1017.7530212402344 926.7372856140137,1057.2836303710938 1034.4137725830078,948.5947265625" style="fill:#711408;stroke:#711408;"></polygon><polygon stroke-linejoin="round" stroke-miterlimit="1" stroke-width="1" points="949.8369903564453,830.8112487792969 847.2918930053711,1017.7530212402344 1034.4137725830078,948.5947265625" style="fill:#781608;stroke:#781608;"></polygon><polygon stroke-linejoin="round" stroke-miterlimit="1" stroke-width="1" points="964.6179351806641,879.1549987792969 847.2918930053711,1017.7530212402344 949.8369903564453,830.8112487792969" style="fill:#450303;stroke:#450303;"></polygon><polygon stroke-linejoin="round" stroke-miterlimit="1" stroke-width="1" points="953.4425582885742,738.1472320556641 964.6179351806641,879.1549987792969 949.8369903564453,830.8112487792969" style="fill:#450303;stroke:#450303;"></polygon><polygon stroke-linejoin="round" stroke-miterlimit="1" stroke-width="1" points="969.9267272949219,765.5800323486328 964.6179351806641,879.1549987792969 953.4425582885742,738.1472320556641" style="fill:#600d06;stroke:#600d06;"></polygon><polygon stroke-linejoin="round" stroke-miterlimit="1" stroke-width="1" points="1083.228500366211,572.6551895141602 969.9267272949219,765.5800323486328 953.4425582885742,738.1472320556641" style="fill:#450303;stroke:#450303;"></polygon><polygon stroke-linejoin="round" stroke-miterlimit="1" stroke-width="1" points="929.2526397705078,648.9091186523438 969.9267272949219,765.5800323486328 1083.228500366211,572.6551895141602" style="fill:#901f0b;stroke:#901f0b;"></polygon><polygon stroke-linejoin="round" stroke-miterlimit="1" stroke-width="1" points="954.0259780883789,452.1084213256836 929.2526397705078,648.9091186523438 1083.228500366211,572.6551895141602" style="fill:#a1250d;stroke:#a1250d;"></polygon><polygon stroke-linejoin="round" stroke-miterlimit="1" stroke-width="1" points="928.1182823181152,505.5670394897461 929.2526397705078,648.9091186523438 954.0259780883789,452.1084213256836" style="fill:#6f1308;stroke:#6f1308;"></polygon><polygon stroke-linejoin="round" stroke-miterlimit="1" stroke-width="1" points="1093.057601928711,327.84930419921875 928.1182823181152,505.5670394897461 954.0259780883789,452.1084213256836" style="fill:#450303;stroke:#450303;"></polygon><polygon stroke-linejoin="round" stroke-miterlimit="1" stroke-width="1" points="832.7941055297852,346.2195739746094 928.1182823181152,505.5670394897461 1093.057601928711,327.84930419921875" style="fill:#f14315;stroke:#f14315;"></polygon><polygon stroke-linejoin="round" stroke-miterlimit="1" stroke-width="1" points="1101.9438018798828,274.98052978515625 832.7941055297852,346.2195739746094 1093.057601928711,327.84930419921875" style="fill:#ff561a;stroke:#ff561a;"></polygon><polygon stroke-linejoin="round" stroke-miterlimit="1" stroke-width="1" points="865.2875213623047,234.76773071289062 832.7941055297852,346.2195739746094 1101.9438018798828,274.98052978515625" style="fill:#e63f14;stroke:#e63f14;"></polygon><polygon stroke-linejoin="round" stroke-miterlimit="1" stroke-width="1" points="950.3285140991211,102.82083129882812 865.2875213623047,234.76773071289062 1101.9438018798828,274.98052978515625" style="fill:#e63f14;stroke:#e63f14;"></polygon><polygon stroke-linejoin="round" stroke-miterlimit="1" stroke-width="1" points="822.3739929199219,144.86697387695312 865.2875213623047,234.76773071289062 950.3285140991211,102.82083129882812" style="fill:#d03711;stroke:#d03711;"></polygon><polygon stroke-linejoin="round" stroke-miterlimit="1" stroke-width="1" points="1101.273696899414,-11.5902099609375 822.3739929199219,144.86697387695312 950.3285140991211,102.82083129882812" style="fill:#c73311;stroke:#c73311;"></polygon><polygon stroke-linejoin="round" stroke-miterlimit="1" stroke-width="1" points="939.6861991882324,-25.958740234375 822.3739929199219,144.86697387695312 1101.273696899414,-11.5902099609375" style="fill:#a0250d;stroke:#a0250d;"></polygon><polygon stroke-linejoin="round" stroke-miterlimit="1" stroke-width="1" points="847.2918930053711,1017.7530212402344 707.9989929199219,1109.8729248046875 926.7372856140137,1057.2836303710938" style="fill:#6a1107;stroke:#6a1107;"></polygon><polygon stroke-linejoin="round" stroke-miterlimit="1" stroke-width="1" points="743.7671203613281,995.8241882324219 707.9989929199219,1109.8729248046875 847.2918930053711,1017.7530212402344" style="fill:#4f0704;stroke:#4f0704;"></polygon><polygon stroke-linejoin="round" stroke-miterlimit="1" stroke-width="1" points="964.6179351806641,879.1549987792969 743.7671203613281,995.8241882324219 847.2918930053711,1017.7530212402344" style="fill:#671007;stroke:#671007;"></polygon><polygon stroke-linejoin="round" stroke-miterlimit="1" stroke-width="1" points="743.1688079833984,811.0590209960938 743.7671203613281,995.8241882324219 964.6179351806641,879.1549987792969" style="fill:#7c1709;stroke:#7c1709;"></polygon><polygon stroke-linejoin="round" stroke-miterlimit="1" stroke-width="1" points="969.9267272949219,765.5800323486328 743.1688079833984,811.0590209960938 964.6179351806641,879.1549987792969" style="fill:#4f0704;stroke:#4f0704;"></polygon><polygon stroke-linejoin="round" stroke-miterlimit="1" stroke-width="1" points="687.6789245605469,771.5337524414062 743.1688079833984,811.0590209960938 969.9267272949219,765.5800323486328" style="fill:#681007;stroke:#681007;"></polygon><polygon stroke-linejoin="round" stroke-miterlimit="1" stroke-width="1" points="929.2526397705078,648.9091186523438 687.6789245605469,771.5337524414062 969.9267272949219,765.5800323486328" style="fill:#8a1c0a;stroke:#8a1c0a;"></polygon><polygon stroke-linejoin="round" stroke-miterlimit="1" stroke-width="1" points="756.2577056884766,643.9079132080078 687.6789245605469,771.5337524414062 929.2526397705078,648.9091186523438" style="fill:#96210c;stroke:#96210c;"></polygon><polygon stroke-linejoin="round" stroke-miterlimit="1" stroke-width="1" points="928.1182823181152,505.5670394897461 756.2577056884766,643.9079132080078 929.2526397705078,648.9091186523438" style="fill:#9f240c;stroke:#9f240c;"></polygon><polygon stroke-linejoin="round" stroke-miterlimit="1" stroke-width="1" points="802.0322113037109,463.7912063598633 756.2577056884766,643.9079132080078 928.1182823181152,505.5670394897461" style="fill:#96210b;stroke:#96210b;"></polygon><polygon stroke-linejoin="round" stroke-miterlimit="1" stroke-width="1" points="832.7941055297852,346.2195739746094 802.0322113037109,463.7912063598633 928.1182823181152,505.5670394897461" style="fill:#db3a13;stroke:#db3a13;"></polygon><polygon stroke-linejoin="round" stroke-miterlimit="1" stroke-width="1" points="798.9919128417969,343.9715576171875 802.0322113037109,463.7912063598633 832.7941055297852,346.2195739746094" style="fill:#9d240c;stroke:#9d240c;"></polygon><polygon stroke-linejoin="round" stroke-miterlimit="1" stroke-width="1" points="865.2875213623047,234.76773071289062 798.9919128417969,343.9715576171875 832.7941055297852,346.2195739746094" style="fill:#a0250d;stroke:#a0250d;"></polygon><polygon stroke-linejoin="round" stroke-miterlimit="1" stroke-width="1" points="802.6916809082031,184.17041015625 798.9919128417969,343.9715576171875 865.2875213623047,234.76773071289062" style="fill:#ba2e0f;stroke:#ba2e0f;"></polygon><polygon stroke-linejoin="round" stroke-miterlimit="1" stroke-width="1" points="822.3739929199219,144.86697387695312 802.6916809082031,184.17041015625 865.2875213623047,234.76773071289062" style="fill:#aa290e;stroke:#aa290e;"></polygon><polygon stroke-linejoin="round" stroke-miterlimit="1" stroke-width="1" points="803.137451171875,146.90530395507812 802.6916809082031,184.17041015625 822.3739929199219,144.86697387695312" style="fill:#fe4716;stroke:#fe4716;"></polygon><polygon stroke-linejoin="round" stroke-miterlimit="1" stroke-width="1" points="939.6861991882324,-25.958740234375 803.137451171875,146.90530395507812 822.3739929199219,144.86697387695312" style="fill:#e94014;stroke:#e94014;"></polygon><polygon stroke-linejoin="round" stroke-miterlimit="1" stroke-width="1" points="831.402587890625,-21.24578857421875 803.137451171875,146.90530395507812 939.6861991882324,-25.958740234375" style="fill:#b22b0e;stroke:#b22b0e;"></polygon><polygon stroke-linejoin="round" stroke-miterlimit="1" stroke-width="1" points="743.7671203613281,995.8241882324219 692.1199035644531,1128.3133544921875 707.9989929199219,1109.8729248046875" style="fill:#610d06;stroke:#610d06;"></polygon><polygon stroke-linejoin="round" stroke-miterlimit="1" stroke-width="1" points="612.5501403808594,1012.5184936523438 692.1199035644531,1128.3133544921875 743.7671203613281,995.8241882324219" style="fill:#5a0b05;stroke:#5a0b05;"></polygon><polygon stroke-linejoin="round" stroke-miterlimit="1" stroke-width="1" points="743.1688079833984,811.0590209960938 612.5501403808594,1012.5184936523438 743.7671203613281,995.8241882324219" style="fill:#5d0c06;stroke:#5d0c06;"></polygon><polygon stroke-linejoin="round" stroke-miterlimit="1" stroke-width="1" points="690.1934509277344,813.9001159667969 612.5501403808594,1012.5184936523438 743.1688079833984,811.0590209960938" style="fill:#5e0d06;stroke:#5e0d06;"></polygon><polygon stroke-linejoin="round" stroke-miterlimit="1" stroke-width="1" points="687.6789245605469,771.5337524414062 690.1934509277344,813.9001159667969 743.1688079833984,811.0590209960938" style="fill:#450303;stroke:#450303;"></polygon><polygon stroke-linejoin="round" stroke-miterlimit="1" stroke-width="1" points="538.2332458496094,769.2848815917969 690.1934509277344,813.9001159667969 687.6789245605469,771.5337524414062" style="fill:#450303;stroke:#450303;"></polygon><polygon stroke-linejoin="round" stroke-miterlimit="1" stroke-width="1" points="756.2577056884766,643.9079132080078 538.2332458496094,769.2848815917969 687.6789245605469,771.5337524414062" style="fill:#8a1c0a;stroke:#8a1c0a;"></polygon><polygon stroke-linejoin="round" stroke-miterlimit="1" stroke-width="1" points="535.8229370117188,592.6327056884766 538.2332458496094,769.2848815917969 756.2577056884766,643.9079132080078" style="fill:#801909;stroke:#801909;"></polygon><polygon stroke-linejoin="round" stroke-miterlimit="1" stroke-width="1" points="802.0322113037109,463.7912063598633 535.8229370117188,592.6327056884766 756.2577056884766,643.9079132080078" style="fill:#7c1809;stroke:#7c1809;"></polygon><polygon stroke-linejoin="round" stroke-miterlimit="1" stroke-width="1" points="648.40771484375,491.5591354370117 535.8229370117188,592.6327056884766 802.0322113037109,463.7912063598633" style="fill:#841a0a;stroke:#841a0a;"></polygon><polygon stroke-linejoin="round" stroke-miterlimit="1" stroke-width="1" points="798.9919128417969,343.9715576171875 648.40771484375,491.5591354370117 802.0322113037109,463.7912063598633" style="fill:#8e1e0b;stroke:#8e1e0b;"></polygon><polygon stroke-linejoin="round" stroke-miterlimit="1" stroke-width="1" points="639.7088623046875,306.46575927734375 648.40771484375,491.5591354370117 798.9919128417969,343.9715576171875" style="fill:#a4260d;stroke:#a4260d;"></polygon><polygon stroke-linejoin="round" stroke-miterlimit="1" stroke-width="1" points="802.6916809082031,184.17041015625 639.7088623046875,306.46575927734375 798.9919128417969,343.9715576171875" style="fill:#b72d0f;stroke:#b72d0f;"></polygon><polygon stroke-linejoin="round" stroke-miterlimit="1" stroke-width="1" points="565.1224670410156,203.02774047851562 639.7088623046875,306.46575927734375 802.6916809082031,184.17041015625" style="fill:#8e1e0b;stroke:#8e1e0b;"></polygon><polygon stroke-linejoin="round" stroke-miterlimit="1" stroke-width="1" points="803.137451171875,146.90530395507812 565.1224670410156,203.02774047851562 802.6916809082031,184.17041015625" style="fill:#b42c0f;stroke:#b42c0f;"></polygon><polygon stroke-linejoin="round" stroke-miterlimit="1" stroke-width="1" points="672.9775085449219,146.60714721679688 565.1224670410156,203.02774047851562 803.137451171875,146.90530395507812" style="fill:#6b1107;stroke:#6b1107;"></polygon><polygon stroke-linejoin="round" stroke-miterlimit="1" stroke-width="1" points="831.402587890625,-21.24578857421875 672.9775085449219,146.60714721679688 803.137451171875,146.90530395507812" style="fill:#821a09;stroke:#821a09;"></polygon><polygon stroke-linejoin="round" stroke-miterlimit="1" stroke-width="1" points="677.19775390625,-64.01953125 672.9775085449219,146.60714721679688 831.402587890625,-21.24578857421875" style="fill:#660f07;stroke:#660f07;"></polygon><polygon stroke-linejoin="round" stroke-miterlimit="1" stroke-width="1" points="612.5501403808594,1012.5184936523438 460.10894775390625,1059.5350952148438 692.1199035644531,1128.3133544921875" style="fill:#8b1d0a;stroke:#8b1d0a;"></polygon><polygon stroke-linejoin="round" stroke-miterlimit="1" stroke-width="1" points="400.853271484375,975.5226135253906 460.10894775390625,1059.5350952148438 612.5501403808594,1012.5184936523438" style="fill:#781608;stroke:#781608;"></polygon><polygon stroke-linejoin="round" stroke-miterlimit="1" stroke-width="1" points="690.1934509277344,813.9001159667969 400.853271484375,975.5226135253906 612.5501403808594,1012.5184936523438" style="fill:#681007;stroke:#681007;"></polygon><polygon stroke-linejoin="round" stroke-miterlimit="1" stroke-width="1" points="517.4451293945312,816.6912231445312 400.853271484375,975.5226135253906 690.1934509277344,813.9001159667969" style="fill:#691107;stroke:#691107;"></polygon><polygon stroke-linejoin="round" stroke-miterlimit="1" stroke-width="1" points="538.2332458496094,769.2848815917969 517.4451293945312,816.6912231445312 690.1934509277344,813.9001159667969" style="fill:#7c1809;stroke:#7c1809;"></polygon><polygon stroke-linejoin="round" stroke-miterlimit="1" stroke-width="1" points="532.6227111816406,685.9975891113281 517.4451293945312,816.6912231445312 538.2332458496094,769.2848815917969" style="fill:#5c0c06;stroke:#5c0c06;"></polygon><polygon stroke-linejoin="round" stroke-miterlimit="1" stroke-width="1" points="535.8229370117188,592.6327056884766 532.6227111816406,685.9975891113281 538.2332458496094,769.2848815917969" style="fill:#450303;stroke:#450303;"></polygon><polygon stroke-linejoin="round" stroke-miterlimit="1" stroke-width="1" points="533.9809265136719,640.5208129882812 532.6227111816406,685.9975891113281 535.8229370117188,592.6327056884766" style="fill:#ff611d;stroke:#ff611d;"></polygon><polygon stroke-linejoin="round" stroke-miterlimit="1" stroke-width="1" points="648.40771484375,491.5591354370117 533.9809265136719,640.5208129882812 535.8229370117188,592.6327056884766" style="fill:#450303;stroke:#450303;"></polygon><polygon stroke-linejoin="round" stroke-miterlimit="1" stroke-width="1" points="491.5224609375,505.69608306884766 533.9809265136719,640.5208129882812 648.40771484375,491.5591354370117" style="fill:#861b0a;stroke:#861b0a;"></polygon><polygon stroke-linejoin="round" stroke-miterlimit="1" stroke-width="1" points="639.7088623046875,306.46575927734375 491.5224609375,505.69608306884766 648.40771484375,491.5591354370117" style="fill:#8c1d0b;stroke:#8c1d0b;"></polygon><polygon stroke-linejoin="round" stroke-miterlimit="1" stroke-width="1" points="552.9610595703125,379.98236083984375 491.5224609375,505.69608306884766 639.7088623046875,306.46575927734375" style="fill:#791609;stroke:#791609;"></polygon><polygon stroke-linejoin="round" stroke-miterlimit="1" stroke-width="1" points="565.1224670410156,203.02774047851562 552.9610595703125,379.98236083984375 639.7088623046875,306.46575927734375" style="fill:#781608;stroke:#781608;"></polygon><polygon stroke-linejoin="round" stroke-miterlimit="1" stroke-width="1" points="516.554931640625,195.75143432617188 552.9610595703125,379.98236083984375 565.1224670410156,203.02774047851562" style="fill:#450303;stroke:#450303;"></polygon><polygon stroke-linejoin="round" stroke-miterlimit="1" stroke-width="1" points="672.9775085449219,146.60714721679688 516.554931640625,195.75143432617188 565.1224670410156,203.02774047851562" style="fill:#450303;stroke:#450303;"></polygon><polygon stroke-linejoin="round" stroke-miterlimit="1" stroke-width="1" points="536.0491333007812,140.7430419921875 516.554931640625,195.75143432617188 672.9775085449219,146.60714721679688" style="fill:#6c1207;stroke:#6c1207;"></polygon><polygon stroke-linejoin="round" stroke-miterlimit="1" stroke-width="1" points="677.19775390625,-64.01953125 536.0491333007812,140.7430419921875 672.9775085449219,146.60714721679688" style="fill:#6d1207;stroke:#6d1207;"></polygon><polygon stroke-linejoin="round" stroke-miterlimit="1" stroke-width="1" points="435.9576416015625,-20.59686279296875 536.0491333007812,140.7430419921875 677.19775390625,-64.01953125" style="fill:#761508;stroke:#761508;"></polygon><polygon stroke-linejoin="round" stroke-miterlimit="1" stroke-width="1" points="400.853271484375,975.5226135253906 283.3695068359375,1084.0015258789062 460.10894775390625,1059.5350952148438" style="fill:#540905;stroke:#540905;"></polygon><polygon stroke-linejoin="round" stroke-miterlimit="1" stroke-width="1" points="259.69287109375,1021.6710815429688 283.3695068359375,1084.0015258789062 400.853271484375,975.5226135253906" style="fill:#560905;stroke:#560905;"></polygon><polygon stroke-linejoin="round" stroke-miterlimit="1" stroke-width="1" points="517.4451293945312,816.6912231445312 259.69287109375,1021.6710815429688 400.853271484375,975.5226135253906" style="fill:#590a05;stroke:#590a05;"></polygon><polygon stroke-linejoin="round" stroke-miterlimit="1" stroke-width="1" points="409.6572265625,807.9446105957031 259.69287109375,1021.6710815429688 517.4451293945312,816.6912231445312" style="fill:#540905;stroke:#540905;"></polygon><polygon stroke-linejoin="round" stroke-miterlimit="1" stroke-width="1" points="532.6227111816406,685.9975891113281 409.6572265625,807.9446105957031 517.4451293945312,816.6912231445312" style="fill:#7d1809;stroke:#7d1809;"></polygon><polygon stroke-linejoin="round" stroke-miterlimit="1" stroke-width="1" points="372.57550048828125,738.5717010498047 409.6572265625,807.9446105957031 532.6227111816406,685.9975891113281" style="fill:#7f1909;stroke:#7f1909;"></polygon><polygon stroke-linejoin="round" stroke-miterlimit="1" stroke-width="1" points="533.9809265136719,640.5208129882812 372.57550048828125,738.5717010498047 532.6227111816406,685.9975891113281" style="fill:#6e1207;stroke:#6e1207;"></polygon><polygon stroke-linejoin="round" stroke-miterlimit="1" stroke-width="1" points="289.3983154296875,647.9360961914062 372.57550048828125,738.5717010498047 533.9809265136719,640.5208129882812" style="fill:#6e1207;stroke:#6e1207;"></polygon><polygon stroke-linejoin="round" stroke-miterlimit="1" stroke-width="1" points="491.5224609375,505.69608306884766 289.3983154296875,647.9360961914062 533.9809265136719,640.5208129882812" style="fill:#620e06;stroke:#620e06;"></polygon><polygon stroke-linejoin="round" stroke-miterlimit="1" stroke-width="1" points="318.0206298828125,431.2697982788086 289.3983154296875,647.9360961914062 491.5224609375,505.69608306884766" style="fill:#5a0b05;stroke:#5a0b05;"></polygon><polygon stroke-linejoin="round" stroke-miterlimit="1" stroke-width="1" points="552.9610595703125,379.98236083984375 318.0206298828125,431.2697982788086 491.5224609375,505.69608306884766" style="fill:#600d06;stroke:#600d06;"></polygon><polygon stroke-linejoin="round" stroke-miterlimit="1" stroke-width="1" points="334.85498046875,318.6103973388672 318.0206298828125,431.2697982788086 552.9610595703125,379.98236083984375" style="fill:#5f0d06;stroke:#5f0d06;"></polygon><polygon stroke-linejoin="round" stroke-miterlimit="1" stroke-width="1" points="516.554931640625,195.75143432617188 334.85498046875,318.6103973388672 552.9610595703125,379.98236083984375" style="fill:#781608;stroke:#781608;"></polygon><polygon stroke-linejoin="round" stroke-miterlimit="1" stroke-width="1" points="313.6512451171875,228.9576416015625 334.85498046875,318.6103973388672 516.554931640625,195.75143432617188" style="fill:#801909;stroke:#801909;"></polygon><polygon stroke-linejoin="round" stroke-miterlimit="1" stroke-width="1" points="536.0491333007812,140.7430419921875 313.6512451171875,228.9576416015625 516.554931640625,195.75143432617188" style="fill:#871c0a;stroke:#871c0a;"></polygon><polygon stroke-linejoin="round" stroke-miterlimit="1" stroke-width="1" points="403.8695068359375,78.1624755859375 313.6512451171875,228.9576416015625 536.0491333007812,140.7430419921875" style="fill:#741508;stroke:#741508;"></polygon><polygon stroke-linejoin="round" stroke-miterlimit="1" stroke-width="1" points="435.9576416015625,-20.59686279296875 403.8695068359375,78.1624755859375 536.0491333007812,140.7430419921875" style="fill:#721408;stroke:#721408;"></polygon><polygon stroke-linejoin="round" stroke-miterlimit="1" stroke-width="1" points="362.91168212890625,3.48858642578125 403.8695068359375,78.1624755859375 435.9576416015625,-20.59686279296875" style="fill:#7d1809;stroke:#7d1809;"></polygon><polygon stroke-linejoin="round" stroke-miterlimit="1" stroke-width="1" points="259.69287109375,1021.6710815429688 163.94580078125,1136.3168334960938 283.3695068359375,1084.0015258789062" style="fill:#701308;stroke:#701308;"></polygon><polygon stroke-linejoin="round" stroke-miterlimit="1" stroke-width="1" points="128.88031005859375,985.5180053710938 163.94580078125,1136.3168334960938 259.69287109375,1021.6710815429688" style="fill:#761508;stroke:#761508;"></polygon><polygon stroke-linejoin="round" stroke-miterlimit="1" stroke-width="1" points="409.6572265625,807.9446105957031 128.88031005859375,985.5180053710938 259.69287109375,1021.6710815429688" style="fill:#570a05;stroke:#570a05;"></polygon><polygon stroke-linejoin="round" stroke-miterlimit="1" stroke-width="1" points="171.53240966796875,881.2022705078125 128.88031005859375,985.5180053710938 409.6572265625,807.9446105957031" style="fill:#590a05;stroke:#590a05;"></polygon><polygon stroke-linejoin="round" stroke-miterlimit="1" stroke-width="1" points="372.57550048828125,738.5717010498047 171.53240966796875,881.2022705078125 409.6572265625,807.9446105957031" style="fill:#610d06;stroke:#610d06;"></polygon><polygon stroke-linejoin="round" stroke-miterlimit="1" stroke-width="1" points="271.7095947265625,716.600341796875 171.53240966796875,881.2022705078125 372.57550048828125,738.5717010498047" style="fill:#5f0d06;stroke:#5f0d06;"></polygon><polygon stroke-linejoin="round" stroke-miterlimit="1" stroke-width="1" points="289.3983154296875,647.9360961914062 271.7095947265625,716.600341796875 372.57550048828125,738.5717010498047" style="fill:#550905;stroke:#550905;"></polygon><polygon stroke-linejoin="round" stroke-miterlimit="1" stroke-width="1" points="255.67559814453125,558.8847312927246 271.7095947265625,716.600341796875 289.3983154296875,647.9360961914062" style="fill:#711408;stroke:#711408;"></polygon><polygon stroke-linejoin="round" stroke-miterlimit="1" stroke-width="1" points="318.0206298828125,431.2697982788086 255.67559814453125,558.8847312927246 289.3983154296875,647.9360961914062" style="fill:#831a0a;stroke:#831a0a;"></polygon><polygon stroke-linejoin="round" stroke-miterlimit="1" stroke-width="1" points="127.62078857421875,488.616641998291 255.67559814453125,558.8847312927246 318.0206298828125,431.2697982788086" style="fill:#771608;stroke:#771608;"></polygon><polygon stroke-linejoin="round" stroke-miterlimit="1" stroke-width="1" points="334.85498046875,318.6103973388672 127.62078857421875,488.616641998291 318.0206298828125,431.2697982788086" style="fill:#7e1809;stroke:#7e1809;"></polygon><polygon stroke-linejoin="round" stroke-miterlimit="1" stroke-width="1" points="195.19110107421875,320.99114990234375 127.62078857421875,488.616641998291 334.85498046875,318.6103973388672" style="fill:#470403;stroke:#470403;"></polygon><polygon stroke-linejoin="round" stroke-miterlimit="1" stroke-width="1" points="313.6512451171875,228.9576416015625 195.19110107421875,320.99114990234375 334.85498046875,318.6103973388672" style="fill:#470403;stroke:#470403;"></polygon><polygon stroke-linejoin="round" stroke-miterlimit="1" stroke-width="1" points="118.6591796875,213.0064697265625 195.19110107421875,320.99114990234375 313.6512451171875,228.9576416015625" style="fill:#600d06;stroke:#600d06;"></polygon><polygon stroke-linejoin="round" stroke-miterlimit="1" stroke-width="1" points="403.8695068359375,78.1624755859375 118.6591796875,213.0064697265625 313.6512451171875,228.9576416015625" style="fill:#620e06;stroke:#620e06;"></polygon><polygon stroke-linejoin="round" stroke-miterlimit="1" stroke-width="1" points="269.9178466796875,81.48883056640625 118.6591796875,213.0064697265625 403.8695068359375,78.1624755859375" style="fill:#911f0b;stroke:#911f0b;"></polygon><polygon stroke-linejoin="round" stroke-miterlimit="1" stroke-width="1" points="362.91168212890625,3.48858642578125 269.9178466796875,81.48883056640625 403.8695068359375,78.1624755859375" style="fill:#871c0a;stroke:#871c0a;"></polygon><polygon stroke-linejoin="round" stroke-miterlimit="1" stroke-width="1" points="277.36614990234375,22.660400390625 269.9178466796875,81.48883056640625 362.91168212890625,3.48858642578125" style="fill:#9c230c;stroke:#9c230c;"></polygon><polygon stroke-linejoin="round" stroke-miterlimit="1" stroke-width="1" points="128.88031005859375,985.5180053710938 -15.08203125,1147.8390502929688 163.94580078125,1136.3168334960938" style="fill:#640f06;stroke:#640f06;"></polygon><polygon stroke-linejoin="round" stroke-miterlimit="1" stroke-width="1" points="-19.9093017578125,1023.2496643066406 -15.08203125,1147.8390502929688 128.88031005859375,985.5180053710938" style="fill:#5a0b05;stroke:#5a0b05;"></polygon><polygon stroke-linejoin="round" stroke-miterlimit="1" stroke-width="1" points="171.53240966796875,881.2022705078125 -19.9093017578125,1023.2496643066406 128.88031005859375,985.5180053710938" style="fill:#4a0504;stroke:#4a0504;"></polygon><polygon stroke-linejoin="round" stroke-miterlimit="1" stroke-width="1" points="29.2125244140625,841.0272827148438 -19.9093017578125,1023.2496643066406 171.53240966796875,881.2022705078125" style="fill:#4c0604;stroke:#4c0604;"></polygon><polygon stroke-linejoin="round" stroke-miterlimit="1" stroke-width="1" points="271.7095947265625,716.600341796875 29.2125244140625,841.0272827148438 171.53240966796875,881.2022705078125" style="fill:#691107;stroke:#691107;"></polygon><polygon stroke-linejoin="round" stroke-miterlimit="1" stroke-width="1" points="15.99920654296875,713.4319610595703 29.2125244140625,841.0272827148438 271.7095947265625,716.600341796875" style="fill:#681007;stroke:#681007;"></polygon><polygon stroke-linejoin="round" stroke-miterlimit="1" stroke-width="1" points="255.67559814453125,558.8847312927246 15.99920654296875,713.4319610595703 271.7095947265625,716.600341796875" style="fill:#681007;stroke:#681007;"></polygon><polygon stroke-linejoin="round" stroke-miterlimit="1" stroke-width="1" points="-16.89483642578125,577.8453979492188 15.99920654296875,713.4319610595703 255.67559814453125,558.8847312927246" style="fill:#600d06;stroke:#600d06;"></polygon><polygon stroke-linejoin="round" stroke-miterlimit="1" stroke-width="1" points="127.62078857421875,488.616641998291 -16.89483642578125,577.8453979492188 255.67559814453125,558.8847312927246" style="fill:#590a05;stroke:#590a05;"></polygon><polygon stroke-linejoin="round" stroke-miterlimit="1" stroke-width="1" points="97.81866455078125,524.0530204772949 -16.89483642578125,577.8453979492188 127.62078857421875,488.616641998291" style="fill:#450303;stroke:#450303;"></polygon><polygon stroke-linejoin="round" stroke-miterlimit="1" stroke-width="1" points="195.19110107421875,320.99114990234375 97.81866455078125,524.0530204772949 127.62078857421875,488.616641998291" style="fill:#450303;stroke:#450303;"></polygon><polygon stroke-linejoin="round" stroke-miterlimit="1" stroke-width="1" points="126.65997314453125,344.1901550292969 97.81866455078125,524.0530204772949 195.19110107421875,320.99114990234375" style="fill:#b12b0e;stroke:#b12b0e;"></polygon><polygon stroke-linejoin="round" stroke-miterlimit="1" stroke-width="1" points="118.6591796875,213.0064697265625 126.65997314453125,344.1901550292969 195.19110107421875,320.99114990234375" style="fill:#a7270d;stroke:#a7270d;"></polygon><polygon stroke-linejoin="round" stroke-miterlimit="1" stroke-width="1" points="112.39410400390625,272.274169921875 126.65997314453125,344.1901550292969 118.6591796875,213.0064697265625" style="fill:#450303;stroke:#450303;"></polygon><polygon stroke-linejoin="round" stroke-miterlimit="1" stroke-width="1" points="269.9178466796875,81.48883056640625 112.39410400390625,272.274169921875 118.6591796875,213.0064697265625" style="fill:#450303;stroke:#450303;"></polygon><polygon stroke-linejoin="round" stroke-miterlimit="1" stroke-width="1" points="26.55499267578125,138.87466430664062 112.39410400390625,272.274169921875 269.9178466796875,81.48883056640625" style="fill:#520805;stroke:#520805;"></polygon><polygon stroke-linejoin="round" stroke-miterlimit="1" stroke-width="1" points="277.36614990234375,22.660400390625 26.55499267578125,138.87466430664062 269.9178466796875,81.48883056640625" style="fill:#520805;stroke:#520805;"></polygon><polygon stroke-linejoin="round" stroke-miterlimit="1" stroke-width="1" points="-19.5849609375,8.17486572265625 26.55499267578125,138.87466430664062 277.36614990234375,22.660400390625" style="fill:#681007;stroke:#681007;"></polygon><polygon stroke-linejoin="round" stroke-miterlimit="1" stroke-width="1" points="-19.9093017578125,1023.2496643066406 -16.36273193359375,1071.3404541015625 -15.08203125,1147.8390502929688" style="fill:#ff5f1d;stroke:#ff5f1d;"></polygon><polygon stroke-linejoin="round" stroke-miterlimit="1" stroke-width="1" points="-132.20166015625,1002.076904296875 -16.36273193359375,1071.3404541015625 -19.9093017578125,1023.2496643066406" style="fill:#be3010;stroke:#be3010;"></polygon><polygon stroke-linejoin="round" stroke-miterlimit="1" stroke-width="1" points="29.2125244140625,841.0272827148438 -132.20166015625,1002.076904296875 -19.9093017578125,1023.2496643066406" style="fill:#620e06;stroke:#620e06;"></polygon><polygon stroke-linejoin="round" stroke-miterlimit="1" stroke-width="1" points="-137.036865234375,897.3093872070312 -132.20166015625,1002.076904296875 29.2125244140625,841.0272827148438" style="fill:#570a05;stroke:#570a05;"></polygon><polygon stroke-linejoin="round" stroke-miterlimit="1" stroke-width="1" points="15.99920654296875,713.4319610595703 -137.036865234375,897.3093872070312 29.2125244140625,841.0272827148438" style="fill:#5a0b05;stroke:#5a0b05;"></polygon><polygon stroke-linejoin="round" stroke-miterlimit="1" stroke-width="1" points="-17.12481689453125,713.2841491699219 -137.036865234375,897.3093872070312 15.99920654296875,713.4319610595703" style="fill:#450303;stroke:#450303;"></polygon><polygon stroke-linejoin="round" stroke-miterlimit="1" stroke-width="1" points="-16.89483642578125,577.8453979492188 -17.12481689453125,713.2841491699219 15.99920654296875,713.4319610595703" style="fill:#450303;stroke:#450303;"></polygon><polygon stroke-linejoin="round" stroke-miterlimit="1" stroke-width="1" points="-81.4796142578125,590.3459930419922 -17.12481689453125,713.2841491699219 -16.89483642578125,577.8453979492188" style="fill:#450303;stroke:#450303;"></polygon><polygon stroke-linejoin="round" stroke-miterlimit="1" stroke-width="1" points="97.81866455078125,524.0530204772949 -81.4796142578125,590.3459930419922 -16.89483642578125,577.8453979492188" style="fill:#4d0604;stroke:#4d0604;"></polygon><polygon stroke-linejoin="round" stroke-miterlimit="1" stroke-width="1" points="-156.9796142578125,452.132080078125 -81.4796142578125,590.3459930419922 97.81866455078125,524.0530204772949" style="fill:#5e0d06;stroke:#5e0d06;"></polygon><polygon stroke-linejoin="round" stroke-miterlimit="1" stroke-width="1" points="126.65997314453125,344.1901550292969 -156.9796142578125,452.132080078125 97.81866455078125,524.0530204772949" style="fill:#5b0b06;stroke:#5b0b06;"></polygon><polygon stroke-linejoin="round" stroke-miterlimit="1" stroke-width="1" points="-23.02252197265625,333.13629150390625 -156.9796142578125,452.132080078125 126.65997314453125,344.1901550292969" style="fill:#4d0604;stroke:#4d0604;"></polygon><polygon stroke-linejoin="round" stroke-miterlimit="1" stroke-width="1" points="112.39410400390625,272.274169921875 -23.02252197265625,333.13629150390625 126.65997314453125,344.1901550292969" style="fill:#500704;stroke:#500704;"></polygon><polygon stroke-linejoin="round" stroke-miterlimit="1" stroke-width="1" points="-10.74029541015625,189.29849243164062 -23.02252197265625,333.13629150390625 112.39410400390625,272.274169921875" style="fill:#721408;stroke:#721408;"></polygon><polygon stroke-linejoin="round" stroke-miterlimit="1" stroke-width="1" points="26.55499267578125,138.87466430664062 -10.74029541015625,189.29849243164062 112.39410400390625,272.274169921875" style="fill:#a0250d;stroke:#a0250d;"></polygon><polygon stroke-linejoin="round" stroke-miterlimit="1" stroke-width="1" points="-50.3321533203125,113.29348754882812 -10.74029541015625,189.29849243164062 26.55499267578125,138.87466430664062" style="fill:#7f1909;stroke:#7f1909;"></polygon><polygon stroke-linejoin="round" stroke-miterlimit="1" stroke-width="1" points="-19.5849609375,8.17486572265625 -50.3321533203125,113.29348754882812 26.55499267578125,138.87466430664062" style="fill:#6c1107;stroke:#6c1107;"></polygon><polygon stroke-linejoin="round" stroke-miterlimit="1" stroke-width="1" points="-127.57080078125,-17.6402587890625 -50.3321533203125,113.29348754882812 -19.5849609375,8.17486572265625" style="fill:#450303;stroke:#450303;"></polygon><circle fill="#9e3b11" r="4" cx="1104.169189453125" cy="249.7916259765625"></circle><circle stroke="#7b0808" stroke-width="0.5" fill="none" r="10" cx="1104.169189453125" cy="249.7916259765625"></circle><circle fill="#9e3b11" r="4" cx="1033.7401123046875" cy="323.5393981933594"></circle><circle stroke="#7b0808" stroke-width="0.5" fill="none" r="10" cx="1033.7401123046875" cy="323.5393981933594"></circle></svg>